Coordinates
version=1
nRows=14
nColumns=24
inDegrees=yes

Units are S.I. units (second, meters, Newtons, ...)
Angles are in degrees.

endheader
time	pelvis_tilt	pelvis_list	pelvis_rotation	pelvis_tx	pelvis_ty	pelvis_tz	hip_flexion_r	hip_adduction_r	hip_rotation_r	knee_angle_r	ankle_angle_r	subtalar_angle_r	mtp_angle_r	hip_flexion_l	hip_adduction_l	hip_rotation_l	knee_angle_l	ankle_angle_l	subtalar_angle_l	mtp_angle_l	lumbar_extension	lumbar_bending	lumbar_rotation
      0.60400000	      1.26982893	      0.71145369	      8.82565672	     -0.80663727	      0.87981349	      0.26259693	     26.82959140	     -1.46904470	    -11.16627770	     -4.94998819	      7.69323684	      4.78737433	      4.82968296	    -27.30053152	     -0.50894739	      4.45046424	     -2.72182416	     11.75943401	      2.83592628	     17.67717942	     -8.99248512	     -1.06015803	    -11.78734385
      0.60816667	      1.20437180	      0.60423808	      8.95327852	     -0.80072006	      0.87878665	      0.26266883	     27.03715067	     -1.34150950	    -11.09346374	     -5.60587464	      7.50257016	      4.48758999	      4.78612349	    -27.35188215	     -0.73094708	      4.38995134	     -3.21629775	     11.67309246	      3.02196247	     17.72892925	     -8.88262519	     -0.84940394	    -11.80718067
      0.61233333	      1.15802913	      0.49086132	      9.06715497	     -0.79477441	      0.87780854	      0.26278444	     27.21921618	     -1.19558879	    -11.00223327	     -6.28554992	      7.22756824	      4.12652084	      4.75255527	    -27.39940081	     -0.95854022	      4.27488311	     -3.76805319	     11.59650005	      3.25654783	     17.82741316	     -8.78667719	     -0.63516522	    -11.81435886
      0.61650000	      1.12965973	      0.37791633	      9.16133306	     -0.78880217	      0.87688070	      0.26294524	     27.38030794	     -1.03598610	    -10.87002659	     -6.99135667	      6.87960470	      3.71444895	      4.72974947	    -27.45808970	     -1.18145536	      4.12630553	     -4.33367502	     11.51518032	      3.50885406	     18.02978060	     -8.74586147	     -0.43378037	    -11.80635372
      0.62066667	      1.06215297	      0.23781190	      9.26302791	     -0.78273057	      0.87594885	      0.26309452	     27.57147919	     -0.85887378	    -10.77063142	     -7.71083161	      6.49560882	      3.32581051	      4.72690416	    -27.47948491	     -1.42694454	      4.05115637	     -4.88072520	     11.31773500	      3.63352467	     18.18230969	     -8.60807935	     -0.17965957	    -11.78963561
      0.62483333	      1.00133766	      0.10787030	      9.33903159	     -0.77664773	      0.87504704	      0.26331331	     27.76111728	     -0.67480048	    -10.60878160	     -8.46245715	      6.03105436	      2.82723734	      4.73751044	    -27.48306289	     -1.65386677	      3.92720950	     -5.48809776	     11.12158410	      3.78259476	     18.37660800	     -8.49342828	      0.04694260	    -11.75349348
      0.62900000	      0.93953502	     -0.03769685	      9.40874160	     -0.77052313	      0.87418496	      0.26356246	     27.94749696	     -0.46945642	    -10.43371656	     -9.22632843	      5.51735881	      2.30021143	      4.76315888	    -27.47304461	     -1.89559896	      3.79829909	     -6.11402470	     10.90606973	      3.93245476	     18.62153819	     -8.38096619	      0.28507660	    -11.70428483
      0.63316667	      0.87453124	     -0.18357673	      9.46455636	     -0.76436480	      0.87335286	      0.26385154	     28.13925860	     -0.25536195	    -10.22955751	    -10.01271228	      4.95648971	      1.72107263	      4.80743684	    -27.44127761	     -2.13166437	      3.65822565	     -6.77850204	     10.67288019	      4.07194129	     18.93252213	     -8.25294358	      0.52845689	    -11.63737230
      0.63733333	      0.84014181	     -0.33891360	      9.50044687	     -0.75816703	      0.87257810	      0.26417464	     28.31913576	     -0.02681761	    -10.06972711	    -10.85930802	      4.39679633	      1.23862419	      5.78277236	    -27.40444179	     -2.38337840	      3.36871201	     -7.51039534	     10.42138227	      4.33846387	     23.98046240	     -8.16402337	      0.78833001	    -11.59135242
      0.64150000	      0.75142848	     -0.49366734	      9.53991296	     -0.75192306	      0.87181130	      0.26451464	     28.54602362	      0.19753414	     -9.86400099	    -11.70437849	      3.81028885	      0.67180161	      5.77384535	    -27.34217320	     -2.61151850	      3.34700918	     -8.17608537	     10.00909616	      4.25143100	     24.02817939	     -8.00615952	      1.03932401	    -11.49427525
      0.64566667	      0.68309297	     -0.64128175	      9.55515588	     -0.74567447	      0.87108817	      0.26491424	     28.76856208	      0.43131307	     -9.60800230	    -12.59805477	      3.22091482	      0.02129393	      5.78001546	    -27.26126912	     -2.82925945	      3.23619152	     -8.93431835	      9.70716806	      4.27365992	     24.15515551	     -7.87202997	      1.27741379	    -11.37657962
      0.64983333	      0.58719614	     -0.80246070	      9.55995543	     -0.73936689	      0.87037695	      0.26533230	     29.03028800	      0.67109850	     -9.38583257	    -13.52555337	      2.64410743	     -0.48134566	      5.78686732	    -27.14259304	     -3.05349432	      3.11980867	     -9.69814525	      9.26216600	      4.29619324	     24.27819087	     -7.70250234	      1.53309959	    -11.28390003
      0.65400000	      0.50000580	     -0.95558070	      9.54748372	     -0.73303646	      0.86971548	      0.26579559	     29.29570098	      0.91338373	     -9.13705257	    -14.49685202	      2.10651560	     -1.03663536	      5.79645822	    -27.00545433	     -3.26359256	      2.99050345	    -10.51971942	      8.82840901	      4.31128433	     24.42802596	     -7.53858723	      1.77214571	    -11.16849234
      0.65816667	      0.41382150	     -1.11008255	      9.52786509	     -0.72668073	      0.86909768	      0.26627635	     29.57016198	      1.15794410	     -8.88743760	    -15.50592431	      1.61178239	     -1.57204373	      5.80618256	    -26.84769154	     -3.47185289	      2.86700215	    -11.38076490	      8.36834072	      4.31139057	     24.60628717	     -7.37075697	      2.01592756	    -11.04373161
